<svg xmlns="http://www.w3.org/2000/svg" viewBox="-10 0 790 540" font-family="Arial, Helvetica, sans-serif">
  <defs>
    <linearGradient id="bg" x1="0" y1="0" x2="0" y2="1">
      <stop offset="0%" stop-color="#7CB5E2"/>
      <stop offset="100%" stop-color="#5B9BD5"/>
    </linearGradient>
  </defs>

  <!-- ===== Column Titles ===== -->
  <text x="115" y="18" text-anchor="middle" fill="#444" font-size="12" font-weight="bold" letter-spacing="1">CLASSIC PROCESS</text>
  <text x="655" y="18" text-anchor="middle" fill="#444" font-size="12" font-weight="bold" letter-spacing="1">TARGET PROCESS</text>

  <!-- ===== LEFT COLUMN: 13 steps ===== -->

  <!-- 1. Idea Capture -->
  <rect x="15" y="30" width="200" height="25" rx="12" fill="url(#bg)"/>
  <text x="115" y="47" text-anchor="middle" fill="white" font-size="11" font-weight="bold">Idea Capture</text>
  <line x1="115" y1="55" x2="115" y2="61" stroke="#C4A830" stroke-width="2"/>
  <polygon points="110,59 115,68 120,59" fill="#C4A830"/>

  <!-- 2. CR Preparation -->
  <rect x="15" y="69" width="200" height="25" rx="12" fill="url(#bg)"/>
  <text x="115" y="86" text-anchor="middle" fill="white" font-size="11" font-weight="bold">CR Preparation</text>
  <line x1="115" y1="94" x2="115" y2="100" stroke="#C4A830" stroke-width="2"/>
  <polygon points="110,98 115,107 120,98" fill="#C4A830"/>

  <!-- 3. Stakeholder Approval -->
  <rect x="15" y="108" width="200" height="25" rx="12" fill="url(#bg)"/>
  <text x="115" y="125" text-anchor="middle" fill="white" font-size="11" font-weight="bold">Stakeholder Approval</text>
  <line x1="115" y1="133" x2="115" y2="139" stroke="#C4A830" stroke-width="2"/>
  <polygon points="110,137 115,146 120,137" fill="#C4A830"/>

  <!-- 4. Business Analysis -->
  <rect x="15" y="147" width="200" height="25" rx="12" fill="url(#bg)"/>
  <text x="115" y="164" text-anchor="middle" fill="white" font-size="11" font-weight="bold">Business Analysis</text>
  <line x1="115" y1="172" x2="115" y2="178" stroke="#C4A830" stroke-width="2"/>
  <polygon points="110,176 115,185 120,176" fill="#C4A830"/>

  <!-- 5. BA Results Approval -->
  <rect x="15" y="186" width="200" height="25" rx="12" fill="url(#bg)"/>
  <text x="115" y="203" text-anchor="middle" fill="white" font-size="11" font-weight="bold">BA Results Approval</text>
  <line x1="115" y1="211" x2="115" y2="217" stroke="#C4A830" stroke-width="2"/>
  <polygon points="110,215 115,224 120,215" fill="#C4A830"/>

  <!-- 6. Contractor Assessment -->
  <rect x="15" y="225" width="200" height="25" rx="12" fill="url(#bg)"/>
  <text x="115" y="242" text-anchor="middle" fill="white" font-size="11" font-weight="bold">Contractor Assessment</text>
  <line x1="115" y1="250" x2="115" y2="256" stroke="#C4A830" stroke-width="2"/>
  <polygon points="110,254 115,263 120,254" fill="#C4A830"/>

  <!-- 7. Priority Setting -->
  <rect x="15" y="264" width="200" height="25" rx="12" fill="url(#bg)"/>
  <text x="115" y="281" text-anchor="middle" fill="white" font-size="11" font-weight="bold">Priority Setting</text>
  <line x1="115" y1="289" x2="115" y2="295" stroke="#C4A830" stroke-width="2"/>
  <polygon points="110,293 115,302 120,293" fill="#C4A830"/>

  <!-- 8. Roadmap Approval -->
  <rect x="15" y="303" width="200" height="25" rx="12" fill="url(#bg)"/>
  <text x="115" y="320" text-anchor="middle" fill="white" font-size="11" font-weight="bold">Roadmap Approval</text>
  <line x1="115" y1="328" x2="115" y2="334" stroke="#C4A830" stroke-width="2"/>
  <polygon points="110,332 115,341 120,332" fill="#C4A830"/>

  <!-- 9. System Analysis -->
  <rect x="15" y="342" width="200" height="25" rx="12" fill="url(#bg)"/>
  <text x="115" y="359" text-anchor="middle" fill="white" font-size="11" font-weight="bold">System Analysis</text>
  <line x1="115" y1="367" x2="115" y2="373" stroke="#C4A830" stroke-width="2"/>
  <polygon points="110,371 115,380 120,371" fill="#C4A830"/>

  <!-- 10. SA Results Approval -->
  <rect x="15" y="381" width="200" height="25" rx="12" fill="url(#bg)"/>
  <text x="115" y="398" text-anchor="middle" fill="white" font-size="11" font-weight="bold">SA Results Approval</text>
  <line x1="115" y1="406" x2="115" y2="412" stroke="#C4A830" stroke-width="2"/>
  <polygon points="110,410 115,419 120,410" fill="#C4A830"/>

  <!-- 11. Development -->
  <rect x="15" y="420" width="200" height="25" rx="12" fill="url(#bg)"/>
  <text x="115" y="437" text-anchor="middle" fill="white" font-size="11" font-weight="bold">Development</text>
  <line x1="115" y1="445" x2="115" y2="451" stroke="#C4A830" stroke-width="2"/>
  <polygon points="110,449 115,458 120,449" fill="#C4A830"/>

  <!-- 12. Testing -->
  <rect x="15" y="459" width="200" height="25" rx="12" fill="url(#bg)"/>
  <text x="115" y="476" text-anchor="middle" fill="white" font-size="11" font-weight="bold">Testing</text>
  <line x1="115" y1="484" x2="115" y2="490" stroke="#C4A830" stroke-width="2"/>
  <polygon points="110,488 115,497 120,488" fill="#C4A830"/>

  <!-- 13. Release -->
  <rect x="15" y="498" width="200" height="25" rx="12" fill="url(#bg)"/>
  <text x="115" y="515" text-anchor="middle" fill="white" font-size="11" font-weight="bold">Release</text>

  <!-- Green loop: left Testing → Development -->
  <polyline points="15,471 -5,471 -5,432 8,432" fill="none" stroke="#6BAF3A" stroke-width="4" stroke-linejoin="miter"/>
  <polygon points="5,425 17,432 5,439" fill="#6BAF3A"/>

  <!-- Green loop: Stakeholder Approval → CR Preparation -->
  <polyline points="15,120 -5,120 -5,81 8,81" fill="none" stroke="#6BAF3A" stroke-width="4" stroke-linejoin="miter"/>
  <polygon points="5,74 17,81 5,88" fill="#6BAF3A"/>

  <!-- Green loop: BA Results Approval → Business Analysis -->
  <polyline points="15,198 -5,198 -5,159 8,159" fill="none" stroke="#6BAF3A" stroke-width="4" stroke-linejoin="miter"/>
  <polygon points="5,152 17,159 5,166" fill="#6BAF3A"/>

  <!-- Green loop: SA Results Approval → System Analysis -->
  <polyline points="15,393 -5,393 -5,354 8,354" fill="none" stroke="#6BAF3A" stroke-width="4" stroke-linejoin="miter"/>
  <polygon points="5,347 17,354 5,361" fill="#6BAF3A"/>

  <!-- ===== GREEN HORIZONTAL ARROW (left → right) ===== -->
  <polyline points="220,149 548,149" fill="none" stroke="#6BAF3A" stroke-width="4"/>
  <polygon points="545,142 559,149 545,156" fill="#6BAF3A"/>

  <!-- ===== CENTER: We will achieve ===== -->
  <rect x="232" y="167" width="315" height="150" rx="8" fill="#EDF4FB" stroke="#B0CCE4" stroke-width="1"/>

  <text x="390" y="192" text-anchor="middle" fill="#333" font-size="15" font-weight="bold">We will achieve:</text>

  <text fill="#444" font-size="12">
    <tspan x="248" y="214">&#x2022;  transparency in change management</tspan>
    <tspan x="248" dy="22">&#x2022;  business involvement in change management process</tspan>
    <tspan x="248" dy="22">&#x2022;  fast delivery of first results</tspan>
    <tspan x="248" dy="22">&#x2022;  ability to scale the process</tspan>
    <tspan x="248" dy="22">&#x2022;  simple management of requirement changes</tspan>
  </text>

  <!-- ===== RIGHT COLUMN: 7 steps with annotations ===== -->

  <!-- 1. Idea Capture -->
  <rect x="555" y="30" width="200" height="25" rx="12" fill="url(#bg)"/>
  <text x="655" y="47" text-anchor="middle" fill="white" font-size="11" font-weight="bold">Idea Capture</text>
  <line x1="655" y1="55" x2="655" y2="160" stroke="#C4A830" stroke-width="2"/>
  <polygon points="650,157 655,168 660,157" fill="#C4A830"/>

  <!-- Annotation block 1 -->
  <text fill="#555" font-size="8" font-style="italic">
    <tspan x="560" y="85">Discussion involves</tspan>
    <tspan x="560" dy="12">system owner, BA,</tspan>
    <tspan x="560" dy="12">change manager, and</tspan>
    <tspan x="560" dy="12">dev team reps</tspan>
  </text>
  <text fill="#555" font-size="8" font-style="italic">
    <tspan x="670" y="85">Result: common agreed</tspan>
    <tspan x="670" dy="12">position, impact on</tspan>
    <tspan x="670" dy="12">other systems, accurate</tspan>
    <tspan x="670" dy="12">effort estimate. Simply</tspan>
    <tspan x="670" dy="12">record agreements</tspan>
  </text>

  <!-- 2. CR Preparation -->
  <rect x="555" y="169" width="200" height="25" rx="12" fill="url(#bg)"/>
  <text x="655" y="186" text-anchor="middle" fill="white" font-size="11" font-weight="bold">CR Preparation</text>
  <line x1="655" y1="194" x2="655" y2="212" stroke="#C4A830" stroke-width="2"/>
  <polygon points="650,210 655,224 660,210" fill="#C4A830"/>

  <!-- 3. Preliminary Assessment -->
  <rect x="555" y="225" width="200" height="25" rx="12" fill="url(#bg)"/>
  <text x="655" y="242" text-anchor="middle" fill="white" font-size="11" font-weight="bold">Preliminary Assessment</text>
  <line x1="655" y1="250" x2="655" y2="256" stroke="#C4A830" stroke-width="2"/>
  <polygon points="650,254 655,263 660,254" fill="#C4A830"/>

  <!-- 4. Priority Setting -->
  <rect x="555" y="264" width="200" height="25" rx="12" fill="url(#bg)"/>
  <text x="655" y="281" text-anchor="middle" fill="white" font-size="11" font-weight="bold">Priority Setting</text>
  <line x1="655" y1="289" x2="655" y2="411" stroke="#C4A830" stroke-width="2"/>
  <polygon points="650,408 655,419 660,408" fill="#C4A830"/>

  <!-- Annotation block 2 -->
  <text fill="#555" font-size="8" font-style="italic">
    <tspan x="560" y="317">Owner sees priority</tspan>
    <tspan x="560" dy="12">impact on timelines</tspan>
    <tspan x="560" dy="12">with ready estimates.</tspan>
    <tspan x="560" dy="12">No roadmaps needed,</tspan>
    <tspan x="560" dy="12">priorities flexible</tspan>
  </text>
  <text fill="#555" font-size="8" font-style="italic">
    <tspan x="670" y="317">Development, testing</tspan>
    <tspan x="670" dy="12">are iterative, split into</tspan>
    <tspan x="670" dy="12">sprints so owner can</tspan>
    <tspan x="670" dy="12">make changes and get</tspan>
    <tspan x="670" dy="12">the needed result</tspan>
  </text>

  <!-- 5. Development -->
  <rect x="555" y="420" width="200" height="25" rx="12" fill="url(#bg)"/>
  <text x="655" y="437" text-anchor="middle" fill="white" font-size="11" font-weight="bold">Development</text>
  <line x1="655" y1="445" x2="655" y2="451" stroke="#C4A830" stroke-width="2"/>
  <polygon points="650,449 655,458 660,449" fill="#C4A830"/>

  <!-- 6. Testing -->
  <rect x="555" y="459" width="200" height="25" rx="12" fill="url(#bg)"/>
  <text x="655" y="476" text-anchor="middle" fill="white" font-size="11" font-weight="bold">Testing</text>
  <line x1="655" y1="484" x2="655" y2="490" stroke="#C4A830" stroke-width="2"/>
  <polygon points="650,488 655,497 660,488" fill="#C4A830"/>

  <!-- 7. Release -->
  <rect x="555" y="498" width="200" height="25" rx="12" fill="url(#bg)"/>
  <text x="655" y="515" text-anchor="middle" fill="white" font-size="11" font-weight="bold">Release</text>

  <!-- Green sprint loop: Testing → Development -->
  <polyline points="755,471 775,471 775,432 762,432" fill="none" stroke="#6BAF3A" stroke-width="4" stroke-linejoin="miter"/>
  <polygon points="765,425 753,432 765,439" fill="#6BAF3A"/>
</svg>