<svg xmlns="http://www.w3.org/2000/svg" viewBox="0 0 660 512" font-family="Arial, Helvetica, sans-serif">

  <!--
    Grid constants:
    Sprint:   146 x 110,  gap between sprints: 8
    Block:    52 x 58     (both Analysis & Implementation identical size)
    Release:  482 x 140   (14 + 146 + 8 + 146 + 8 + 146 + 14)
    Row:      154 high,   gap between rows: 16

    Offsets (time-shifted):
    Team 1:  release_x = 60     (mid)
    Team 2:  release_x = 155    (late — partial prev release on left)
    Team N:  release_x = 35     (early — partial next release on right)
  -->

  <!-- ===== TEAM 1 — MAIN RELEASE ===== -->

  <rect x="60" y="11" width="482" height="140" rx="3" fill="#E8EFF8" stroke="#B4CDE4" stroke-width="1.2"/>
  <text x="301" y="28" text-anchor="middle" fill="#444" font-size="13" font-weight="bold">Release</text>

  <!-- Sprint 1 -->
  <rect x="74" y="35" width="146" height="110" rx="3" fill="#F0F7E8" stroke="#C5E0B4" stroke-width="1"/>
  <text x="147" y="51" text-anchor="middle" fill="#444" font-size="11" font-weight="bold">Sprint</text>
  <rect x="91" y="67" width="52" height="58" rx="3" fill="#9DC3E6"/>
  <text x="117" y="100" text-anchor="middle" fill="#fff" font-size="9" font-weight="bold">Analysis</text>
  <rect x="151" y="67" width="52" height="58" rx="3" fill="#A9D18E"/>
  <text x="177" y="92" text-anchor="middle" fill="#fff" font-size="8" font-weight="bold">Imple-</text>
  <text x="177" y="104" text-anchor="middle" fill="#fff" font-size="8" font-weight="bold">mentation</text>

  <!-- Sprint 2 -->
  <rect x="228" y="35" width="146" height="110" rx="3" fill="#F0F7E8" stroke="#C5E0B4" stroke-width="1"/>
  <text x="301" y="51" text-anchor="middle" fill="#444" font-size="11" font-weight="bold">Sprint</text>
  <rect x="245" y="67" width="52" height="58" rx="3" fill="#9DC3E6"/>
  <text x="271" y="100" text-anchor="middle" fill="#fff" font-size="9" font-weight="bold">Analysis</text>
  <rect x="305" y="67" width="52" height="58" rx="3" fill="#A9D18E"/>
  <text x="331" y="92" text-anchor="middle" fill="#fff" font-size="8" font-weight="bold">Imple-</text>
  <text x="331" y="104" text-anchor="middle" fill="#fff" font-size="8" font-weight="bold">mentation</text>

  <!-- Sprint 3 -->
  <rect x="382" y="35" width="146" height="110" rx="3" fill="#F0F7E8" stroke="#C5E0B4" stroke-width="1"/>
  <text x="455" y="51" text-anchor="middle" fill="#444" font-size="11" font-weight="bold">Sprint</text>
  <rect x="399" y="67" width="52" height="58" rx="3" fill="#9DC3E6"/>
  <text x="425" y="100" text-anchor="middle" fill="#fff" font-size="9" font-weight="bold">Analysis</text>
  <rect x="459" y="67" width="52" height="58" rx="3" fill="#A9D18E"/>
  <text x="485" y="92" text-anchor="middle" fill="#fff" font-size="8" font-weight="bold">Imple-</text>
  <text x="485" y="104" text-anchor="middle" fill="#fff" font-size="8" font-weight="bold">mentation</text>

  <!-- TEAM 1 — SECOND RELEASE (partial, clipped on right) -->

  <rect x="552" y="11" width="482" height="140" rx="3" fill="#E8EFF8" stroke="#B4CDE4" stroke-width="1.2"/>
  <text x="606" y="28" text-anchor="middle" fill="#444" font-size="13" font-weight="bold">Release</text>

  <rect x="566" y="35" width="146" height="110" rx="3" fill="#F0F7E8" stroke="#C5E0B4" stroke-width="1"/>
  <text x="639" y="51" text-anchor="middle" fill="#444" font-size="11" font-weight="bold">Sprint</text>
  <rect x="583" y="67" width="52" height="58" rx="3" fill="#9DC3E6"/>
  <text x="609" y="100" text-anchor="middle" fill="#fff" font-size="9" font-weight="bold">Analysis</text>
  <rect x="643" y="67" width="52" height="58" rx="3" fill="#A9D18E"/>

  <!-- ===== TEAM 2 — PREVIOUS RELEASE (partial, clipped on left) ===== -->

  <rect x="-337" y="181" width="482" height="140" rx="3" fill="#E8EFF8" stroke="#B4CDE4" stroke-width="1.2"/>
  <text x="88" y="198" text-anchor="middle" fill="#444" font-size="13" font-weight="bold">Release</text>

  <rect x="-15" y="205" width="146" height="110" rx="3" fill="#F0F7E8" stroke="#C5E0B4" stroke-width="1"/>
  <text x="58" y="221" text-anchor="middle" fill="#444" font-size="11" font-weight="bold">Sprint</text>
  <rect x="2" y="237" width="52" height="58" rx="3" fill="#9DC3E6"/>
  <rect x="62" y="237" width="52" height="58" rx="3" fill="#A9D18E"/>
  <text x="88" y="262" text-anchor="middle" fill="#fff" font-size="8" font-weight="bold">Imple-</text>
  <text x="88" y="274" text-anchor="middle" fill="#fff" font-size="8" font-weight="bold">mentation</text>

  <!-- TEAM 2 — MAIN RELEASE -->

  <rect x="155" y="181" width="482" height="140" rx="3" fill="#E8EFF8" stroke="#B4CDE4" stroke-width="1.2"/>
  <text x="396" y="198" text-anchor="middle" fill="#444" font-size="13" font-weight="bold">Release</text>

  <!-- Sprint 1 -->
  <rect x="169" y="205" width="146" height="110" rx="3" fill="#F0F7E8" stroke="#C5E0B4" stroke-width="1"/>
  <text x="242" y="221" text-anchor="middle" fill="#444" font-size="11" font-weight="bold">Sprint</text>
  <rect x="186" y="237" width="52" height="58" rx="3" fill="#9DC3E6"/>
  <text x="212" y="270" text-anchor="middle" fill="#fff" font-size="9" font-weight="bold">Analysis</text>
  <rect x="246" y="237" width="52" height="58" rx="3" fill="#A9D18E"/>
  <text x="272" y="262" text-anchor="middle" fill="#fff" font-size="8" font-weight="bold">Imple-</text>
  <text x="272" y="274" text-anchor="middle" fill="#fff" font-size="8" font-weight="bold">mentation</text>

  <!-- Sprint 2 -->
  <rect x="323" y="205" width="146" height="110" rx="3" fill="#F0F7E8" stroke="#C5E0B4" stroke-width="1"/>
  <text x="396" y="221" text-anchor="middle" fill="#444" font-size="11" font-weight="bold">Sprint</text>
  <rect x="340" y="237" width="52" height="58" rx="3" fill="#9DC3E6"/>
  <text x="366" y="270" text-anchor="middle" fill="#fff" font-size="9" font-weight="bold">Analysis</text>
  <rect x="400" y="237" width="52" height="58" rx="3" fill="#A9D18E"/>
  <text x="426" y="262" text-anchor="middle" fill="#fff" font-size="8" font-weight="bold">Imple-</text>
  <text x="426" y="274" text-anchor="middle" fill="#fff" font-size="8" font-weight="bold">mentation</text>

  <!-- Sprint 3 -->
  <rect x="477" y="205" width="146" height="110" rx="3" fill="#F0F7E8" stroke="#C5E0B4" stroke-width="1"/>
  <text x="550" y="221" text-anchor="middle" fill="#444" font-size="11" font-weight="bold">Sprint</text>
  <rect x="494" y="237" width="52" height="58" rx="3" fill="#9DC3E6"/>
  <text x="520" y="270" text-anchor="middle" fill="#fff" font-size="9" font-weight="bold">Analysis</text>
  <rect x="554" y="237" width="52" height="58" rx="3" fill="#A9D18E"/>
  <text x="580" y="262" text-anchor="middle" fill="#fff" font-size="8" font-weight="bold">Imple-</text>
  <text x="580" y="274" text-anchor="middle" fill="#fff" font-size="8" font-weight="bold">mentation</text>

  <!-- ===== TEAM N — MAIN RELEASE ===== -->

  <rect x="35" y="351" width="482" height="140" rx="3" fill="#E8EFF8" stroke="#B4CDE4" stroke-width="1.2"/>
  <text x="276" y="368" text-anchor="middle" fill="#444" font-size="13" font-weight="bold">Release</text>

  <!-- Sprint 1 -->
  <rect x="49" y="375" width="146" height="110" rx="3" fill="#F0F7E8" stroke="#C5E0B4" stroke-width="1"/>
  <text x="122" y="391" text-anchor="middle" fill="#444" font-size="11" font-weight="bold">Sprint</text>
  <rect x="66" y="407" width="52" height="58" rx="3" fill="#9DC3E6"/>
  <text x="92" y="440" text-anchor="middle" fill="#fff" font-size="9" font-weight="bold">Analysis</text>
  <rect x="126" y="407" width="52" height="58" rx="3" fill="#A9D18E"/>
  <text x="152" y="432" text-anchor="middle" fill="#fff" font-size="8" font-weight="bold">Imple-</text>
  <text x="152" y="444" text-anchor="middle" fill="#fff" font-size="8" font-weight="bold">mentation</text>

  <!-- Sprint 2 -->
  <rect x="203" y="375" width="146" height="110" rx="3" fill="#F0F7E8" stroke="#C5E0B4" stroke-width="1"/>
  <text x="276" y="391" text-anchor="middle" fill="#444" font-size="11" font-weight="bold">Sprint</text>
  <rect x="220" y="407" width="52" height="58" rx="3" fill="#9DC3E6"/>
  <text x="246" y="440" text-anchor="middle" fill="#fff" font-size="9" font-weight="bold">Analysis</text>
  <rect x="280" y="407" width="52" height="58" rx="3" fill="#A9D18E"/>
  <text x="306" y="432" text-anchor="middle" fill="#fff" font-size="8" font-weight="bold">Imple-</text>
  <text x="306" y="444" text-anchor="middle" fill="#fff" font-size="8" font-weight="bold">mentation</text>

  <!-- Sprint 3 -->
  <rect x="357" y="375" width="146" height="110" rx="3" fill="#F0F7E8" stroke="#C5E0B4" stroke-width="1"/>
  <text x="430" y="391" text-anchor="middle" fill="#444" font-size="11" font-weight="bold">Sprint</text>
  <rect x="374" y="407" width="52" height="58" rx="3" fill="#9DC3E6"/>
  <text x="400" y="440" text-anchor="middle" fill="#fff" font-size="9" font-weight="bold">Analysis</text>
  <rect x="434" y="407" width="52" height="58" rx="3" fill="#A9D18E"/>
  <text x="460" y="432" text-anchor="middle" fill="#fff" font-size="8" font-weight="bold">Imple-</text>
  <text x="460" y="444" text-anchor="middle" fill="#fff" font-size="8" font-weight="bold">mentation</text>

  <!-- TEAM N — SECOND RELEASE (partial, clipped on right) -->

  <rect x="527" y="351" width="482" height="140" rx="3" fill="#E8EFF8" stroke="#B4CDE4" stroke-width="1.2"/>
  <text x="593" y="368" text-anchor="middle" fill="#444" font-size="13" font-weight="bold">Release</text>

  <rect x="541" y="375" width="146" height="110" rx="3" fill="#F0F7E8" stroke="#C5E0B4" stroke-width="1"/>
  <text x="614" y="391" text-anchor="middle" fill="#444" font-size="11" font-weight="bold">Sprint</text>
  <rect x="558" y="407" width="52" height="58" rx="3" fill="#9DC3E6"/>
  <text x="584" y="440" text-anchor="middle" fill="#fff" font-size="9" font-weight="bold">Analysis</text>
  <rect x="618" y="407" width="52" height="58" rx="3" fill="#A9D18E"/>

  <!-- ===== CURRENT DAY LINE ===== -->
  <line x1="530" y1="0" x2="530" y2="512" stroke="#D4A843" stroke-width="2.5" opacity="0.75"/>
  <line x1="532" y1="0" x2="532" y2="512" stroke="#E8C68A" stroke-width="1" opacity="0.5"/>
  <text x="540" y="5" fill="#C49A2A" font-size="10" font-weight="bold"
        transform="rotate(90,540,5)" text-anchor="start">Current day</text>

  <!-- ===== TEAM LABELS (drawn last, on top) ===== -->

  <rect x="2" y="4" width="26" height="154" rx="2" fill="#D6E4F0"/>
  <text x="15" y="85" text-anchor="middle" fill="#333" font-size="12" font-weight="bold"
        transform="rotate(-90,15,85)">Team 1</text>

  <rect x="2" y="174" width="26" height="154" rx="2" fill="#D6E4F0"/>
  <text x="15" y="255" text-anchor="middle" fill="#333" font-size="12" font-weight="bold"
        transform="rotate(-90,15,255)">Team 2</text>

  <rect x="2" y="344" width="26" height="154" rx="2" fill="#D6E4F0"/>
  <text x="15" y="425" text-anchor="middle" fill="#333" font-size="12" font-weight="bold"
        transform="rotate(-90,15,425)">Team N</text>

</svg>